<svg width="461" height="315" viewBox="0 0 461 315" fill="none" xmlns="http://www.w3.org/2000/svg">
<path fill-rule="evenodd" clip-rule="evenodd" d="M302 0H214V6H200L177 44H140V25H59V44H0V315H461V44H341L318 6H302V0ZM356 180.5C356 232.691 313.691 275 261.5 275C209.309 275 167 232.691 167 180.5C167 128.309 209.309 86 261.5 86C313.691 86 356 128.309 356 180.5ZM130 66H125V297H130V66ZM261.5 267C309.825 267 349 227.825 349 179.5C349 131.175 309.825 92 261.5 92C213.175 92 174 131.175 174 179.5C174 227.825 213.175 267 261.5 267ZM262 249C300.108 249 331 218.332 331 180.5C331 142.668 300.108 112 262 112C223.892 112 193 142.668 193 180.5C193 218.332 223.892 249 262 249Z" fill="#F9F9F9"/>
</svg>
