<svg width="563" height="383" viewBox="0 0 563 383" fill="none" xmlns="http://www.w3.org/2000/svg">
<path fill-rule="evenodd" clip-rule="evenodd" d="M386.571 58.7695H192.736L254.213 28.9552H386.571V58.7695ZM253.968 1.00426H254.005C254.235 0.907008 254.459 0.913283 254.64 1.00426H386.571H398.932H400.922C404.788 1.00426 407.922 4.13827 407.922 8.00426V58.7695H413.283C417.149 58.7695 420.283 61.9035 420.283 65.7695V318.796V331.057V370.395C420.283 376.47 415.359 381.395 409.283 381.395H315.213H313.527V379.923C296.323 365.337 250.556 338.678 191.038 338.057L187.074 338.057C128.261 338.679 101.565 367.001 95.519 381.395L95.519 338.057V383H50.8263C46.9603 383 43.8263 379.866 43.8263 376V331.057V299.535V65.7695C43.8263 61.9035 46.9603 58.7695 50.8263 58.7695H134.888L253.956 1.02627L253.968 1.02069V1.00426ZM227.627 90.8715C225.418 90.8715 223.627 92.6624 223.627 94.8715V181.572C223.627 183.782 225.418 185.572 227.627 185.572H381.447C383.656 185.572 385.447 183.782 385.447 181.572V94.8715C385.447 92.6624 383.656 90.8715 381.447 90.8715H227.627ZM0 75.54H38.2076V321.508H0V75.54ZM442.321 136.44L458.74 96.0374H563V312.191H458.74L442.321 285.929H425.902V136.44H442.321Z" fill="#F9F9F9"/>
</svg>
